<svg width="1358" height="290" viewBox="0 0 1358 290" fill="none" xmlns="http://www.w3.org/2000/svg">
<path d="M111.585 31.039C89.5953 51.844 63.7075 51.844 41.7084 31.039L40.1589 29.4895L39.3792 30.2692L38.5995 31.0489L40.149 32.5984C60.9539 54.5877 60.9539 80.4755 40.149 102.475L38.6686 103.955C38.6686 103.955 38.6192 104.004 38.5896 104.034L40.1391 105.584L41.6886 104.034C63.6779 83.2291 89.5657 83.2291 111.565 104.034L113.114 105.584L114.664 104.034L113.114 102.485C92.3094 80.4952 92.3094 54.6075 113.114 32.6083L114.664 31.0588L113.884 30.2791L113.105 29.4994L111.555 31.0489L111.585 31.039Z" fill="#4B5DA9"/>
<path d="M111.585 104.014C89.5953 124.819 63.7075 124.819 41.7084 104.014L40.1589 102.465L39.3792 103.244L38.5995 104.024L40.149 105.574C60.9539 127.563 60.9539 153.451 40.149 175.45L38.6686 176.93C38.6686 176.93 38.6192 176.98 38.5896 177.009L40.1391 178.559L41.6886 177.009C63.6779 156.204 89.5657 156.204 111.565 177.009L113.114 178.559L114.664 177.009L113.114 175.46C92.3094 153.47 92.3094 127.583 113.114 105.583L114.664 104.034L113.884 103.254L113.105 102.474L111.555 104.024L111.585 104.014Z" fill="#056CB5"/>
<path d="M184.56 31.039C162.571 51.844 136.683 51.844 114.684 31.039L113.134 29.4895L112.355 30.2692L111.575 31.0489L113.125 32.5984C133.93 54.5877 133.93 80.4755 113.125 102.475L111.644 103.955C111.644 103.955 111.595 104.004 111.565 104.034L113.115 105.584L114.664 104.034C136.654 83.2291 162.541 83.2291 184.54 104.034L186.09 105.584L187.639 104.034L186.09 102.485C165.285 80.4952 165.285 54.6075 186.09 32.6083L187.639 31.0588L186.86 30.2791L186.08 29.4994L184.531 31.0489L184.56 31.039Z" fill="#00B4AA"/>
<path d="M158.692 162.392C167.584 164.356 176.349 169.222 184.56 176.999L186.11 178.549L187.659 176.999L186.11 175.45C178.332 167.238 173.467 158.474 171.503 149.582C166.301 152.898 161.998 157.201 158.682 162.402L158.692 162.392Z" fill="#4B5DA9"/>
<path d="M127.741 149.572C125.777 158.464 120.911 167.228 113.134 175.45L111.654 176.93C111.654 176.93 111.604 176.979 111.575 177.009L113.124 178.559L114.674 177.009C122.885 169.232 131.649 164.366 140.542 162.402C137.226 157.201 132.922 152.898 127.721 149.582L127.741 149.572Z" fill="#054F90"/>
<path d="M171.512 131.442C173.476 122.549 178.342 113.785 186.119 105.574L187.669 104.024L186.889 103.244L186.109 102.465L184.56 104.014C176.348 111.791 167.584 116.657 158.692 118.621C162.008 123.822 166.311 128.125 171.512 131.442Z" fill="#25BECB"/>
<path d="M140.562 118.621C131.67 116.657 122.906 111.791 114.694 104.014L113.145 102.465L112.365 103.244L111.585 104.024L113.135 105.574C120.902 113.785 125.778 122.549 127.742 131.442C132.943 128.125 137.246 123.822 140.562 118.621Z" fill="#4B5DA9"/>
<path d="M158.692 118.621C153.787 110.943 151.033 101.31 150.728 89.9995V87.8085H149.632H148.536V89.9995C148.221 101.31 145.467 110.943 140.572 118.621C146.592 119.954 152.682 119.954 158.702 118.621H158.692Z" fill="#00B4AA"/>
<path d="M140.562 162.392C145.467 170.071 148.22 179.713 148.526 191.014V193.205H150.717V191.014C151.033 179.704 153.787 170.071 158.682 162.392C152.662 161.06 146.572 161.06 140.552 162.392H140.562Z" fill="#0988C9"/>
<path d="M200.134 139.406C188.824 139.091 179.191 136.337 171.513 131.442C170.18 137.462 170.18 143.552 171.513 149.572C179.191 144.667 188.834 141.913 200.134 141.607H202.325V140.512V139.416H200.134V139.406Z" fill="#33B5E9"/>
<path d="M127.741 131.442C120.063 136.347 110.43 139.1 99.1199 139.406H97.0275C97.0275 139.406 96.9584 139.406 96.9189 139.406V141.597H99.11C110.411 141.913 120.053 144.667 127.732 149.562C129.064 143.542 129.064 137.452 127.732 131.432L127.741 131.442Z" fill="#056CB5"/>
<path d="M257.536 31.039C235.546 51.844 209.658 51.844 187.659 31.039L186.11 29.4895L185.33 30.2692L184.55 31.0489L186.1 32.5984C206.905 54.5877 206.905 80.4755 186.1 102.475L184.619 103.955C184.619 103.955 184.57 104.004 184.541 104.034L186.09 105.584L187.64 104.034C209.629 83.2291 235.517 83.2291 257.516 104.034L259.065 105.584L260.615 104.034L259.065 102.485C238.26 80.4952 238.26 54.6075 259.065 32.6083L260.615 31.0588L259.835 30.2791L259.055 29.4994L257.506 31.0489L257.536 31.039Z" fill="#25BECB"/>
<path d="M111.575 176.97C89.5857 197.775 63.6979 197.775 41.6987 176.97L40.1492 175.42L39.3695 176.2L38.5898 176.98L40.1394 178.529C71.0014 209.391 22.3643 264.611 1.55939 286.6L0.0789562 288.081C0.0789562 288.081 0.0296086 288.13 0 288.16L1.54952 289.709L3.09903 288.16C25.0883 267.355 80.0715 218.481 111.555 249.965L113.105 251.514L114.654 249.965L113.105 248.415C92.2998 226.426 92.2998 200.538 113.105 178.539L114.654 176.989L113.875 176.21L113.095 175.43L111.545 176.98L111.575 176.97Z" fill="#054F90"/>
<path d="M184.56 176.99C162.571 197.795 136.683 197.795 114.684 176.99L113.134 175.44L112.355 176.22L111.575 176.999L113.125 178.549C133.93 200.538 133.93 226.426 113.125 248.425L111.644 249.906C111.644 249.906 111.595 249.955 111.565 249.985L113.115 251.534L114.664 249.985C136.654 229.18 162.541 229.18 184.54 249.985L186.09 251.534L187.639 249.985L186.09 248.435C165.285 226.446 165.285 200.558 186.09 178.559L187.639 177.009L186.86 176.23L186.08 175.45L184.531 176.999L184.56 176.99Z" fill="#0988C9"/>
<path d="M257.536 176.99C235.546 197.795 209.658 197.795 187.659 176.99L186.11 175.44L185.33 176.22L184.55 176.999L186.1 178.549C206.905 200.538 206.905 226.426 186.1 248.425L184.619 249.906C184.619 249.906 184.57 249.955 184.541 249.985L186.09 251.534L187.64 249.985C209.629 229.18 235.517 229.18 257.516 249.985L259.065 251.534L260.615 249.985L259.065 248.435C238.26 226.446 238.26 200.558 259.065 178.559L260.615 177.009L259.835 176.23L259.055 175.45L257.506 176.999L257.536 176.99Z" fill="#4B5DA9"/>
<path d="M257.536 104.014C235.546 124.819 209.658 124.819 187.659 104.014L186.11 102.465L185.33 103.244L184.55 104.024L186.1 105.574C206.905 127.563 206.905 153.451 186.1 175.45L184.619 176.93C184.619 176.93 184.57 176.98 184.541 177.009L186.09 178.559L187.64 177.009C209.629 156.204 235.517 156.204 257.516 177.009L259.065 178.559L260.615 177.009L259.065 175.46C238.26 153.47 238.26 127.583 259.065 105.583L260.615 104.034L259.835 103.254L259.055 102.474L257.506 104.024L257.536 104.014Z" fill="#33B5E9"/>
<path d="M149.415 280.935C121.208 280.935 94.1358 272.645 70.8042 256.814C69.3238 255.807 68.9389 253.794 69.9456 252.304C70.9523 250.823 72.9657 250.438 74.456 251.445C98.0441 267.453 125.669 275.379 154.33 274.352C183.129 273.326 210.231 263.357 232.704 245.503C234.105 244.388 236.148 244.625 237.264 246.027C238.379 247.428 238.142 249.471 236.741 250.586C213.172 269.299 184.758 279.761 154.557 280.836C152.84 280.896 151.122 280.925 149.415 280.925V280.935Z" fill="#054F90"/>
<path d="M258.611 226.969C257.92 226.969 257.229 226.752 256.637 226.298C255.216 225.212 254.94 223.169 256.035 221.748C292.829 173.644 292.641 106.59 255.591 58.6838C254.496 57.2626 254.752 55.2294 256.173 54.1339C257.595 53.0384 259.628 53.295 260.723 54.7162C299.58 104.942 299.767 175.253 261.187 225.696C260.546 226.535 259.578 226.969 258.601 226.969H258.611Z" fill="#054F90"/>
<path d="M234.144 35.7565C233.444 35.7565 232.733 35.5295 232.141 35.0656C184.135 -2.636 116.756 -3.07026 68.277 34.0194C66.8558 35.1051 64.8128 34.8386 63.7272 33.4174C62.6415 31.9962 62.908 29.9532 64.3292 28.8675C115.157 -10.0283 185.813 -9.57427 236.148 29.963C237.559 31.0684 237.806 33.1114 236.691 34.5228C236.049 35.3419 235.102 35.7663 234.134 35.7663L234.144 35.7565Z" fill="#054F90"/>
<path d="M35.9148 220.662C34.8785 220.662 33.8521 220.159 33.2303 219.241C16.4422 194.498 8.1321 165.541 9.20788 135.488C10.2837 105.297 20.7454 76.8729 39.458 53.3045C40.5732 51.903 42.6162 51.6662 44.0177 52.7814C45.4192 53.8967 45.656 55.9397 44.5408 57.3411C26.6967 79.8141 16.7186 106.916 15.6922 135.715C14.6756 164.376 22.6008 191.991 38.5993 215.589C39.606 217.07 39.2211 219.093 37.7407 220.099C37.1781 220.475 36.5465 220.662 35.9247 220.662H35.9148Z" fill="#054F90"/>
<path d="M457.91 66.1261V177.731H415.737V162.804H362.933V217.31H355.45L320.76 182.619V66.1261H362.933V120.631H415.737V66.1261H457.91Z" fill="#25BECB"/>
<path d="M507.579 66.1261L479.25 97.2143V66.1261H507.579Z" fill="#25BECB"/>
<path d="M457.924 162.805H415.738V192.167H457.924V162.805Z" fill="#0988C9"/>
<path d="M521.423 108.299V122.886H593.765V160.55H521.423V175.136H600.567V192.167H479.25V97.2143L507.579 66.1261H600.567V108.299H521.423Z" fill="#0988C9"/>
<path d="M665.325 66.1261H623.14V192.167H665.325V66.1261Z" fill="#0988C9"/>
<path d="M355.45 217.31H320.76V182.619L355.45 217.31Z" fill="#0988C9"/>
<path d="M457.924 192.167H415.738V217.31H457.924V192.167Z" fill="#4B5DA9"/>
<path d="M665.325 192.167H623.14V217.31H665.325V192.167Z" fill="#4B5DA9"/>
<path d="M665.325 176.938H623.14V178.525H665.325V176.938Z" fill="white"/>
<path d="M600.567 192.167V217.31H479.25V192.167H479.527L529.686 143.041L546.88 160.55H521.423V175.137H561.215L577.956 192.167H600.567Z" fill="#4B5DA9"/>
<path d="M586.181 160.55H583.939L546.288 122.886H548.53L586.181 160.55Z" fill="white"/>
<path d="M592.253 66.1261L548.455 108.299H546.175L589.96 66.1261H592.253Z" fill="white"/>
<path d="M457.924 176.938H415.738V178.525H457.924V176.938Z" fill="white"/>
<path d="M565.095 160.55H562.853L528.628 126.312L479.25 173.99V171.799L528.641 124.095L565.095 160.55Z" fill="white"/>
<path d="M665.325 161.671H623.14V163.258H665.325V161.671Z" fill="white"/>
<path d="M691.834 78.0719C691.834 77.0856 691.435 76.1932 690.801 75.5121C690.026 74.6901 688.875 74.1735 687.043 74.1735H680.326V86.2447H683.567V81.9939H686.432L688.734 86.2447H692.398L689.626 81.4303C690.988 80.7257 691.834 79.575 691.834 78.0954V78.0719ZM687.231 79.3636H683.544V76.8038H687.231C687.56 76.8038 687.959 76.8507 688.241 77.1795C688.452 77.4144 688.593 77.7432 688.593 78.0954C688.593 78.9174 687.982 79.3871 687.231 79.3871V79.3636Z" fill="#292664"/>
<path d="M686.362 66.1261C678.6 66.1261 672.279 72.4476 672.279 80.2092C672.279 87.9707 678.6 94.2923 686.362 94.2923C694.123 94.2923 700.445 87.9707 700.445 80.2092C700.445 72.4476 694.123 66.1261 686.362 66.1261ZM686.362 91.5098C680.138 91.5098 675.061 86.4331 675.061 80.2092C675.061 73.9853 680.138 68.9085 686.362 68.9085C692.585 68.9085 697.662 73.9853 697.662 80.2092C697.662 86.4331 692.585 91.5098 686.362 91.5098Z" fill="#292664"/>
<path d="M966.915 112.046H942.28V128.886H933.156V90.5172H942.28V106.668H966.915V90.5172H976.039V128.886H966.915V112.046Z" fill="#292664"/>
<path d="M1040.8 123.267H1065.53L1064.46 128.869H1031.68V90.501H1040.8V123.251V123.267Z" fill="#292664"/>
<path d="M1129.08 123.267H1153.81L1152.74 128.869H1119.96V90.501H1129.08V123.251V123.267Z" fill="#292664"/>
<path d="M1209.96 95.7352H1186.51V106.124H1206.83V111.278H1186.51V123.651H1211.34V128.869H1177.39V90.501H1210.95L1209.98 95.7192L1209.96 95.7352Z" fill="#292664"/>
<path d="M1260.56 128.869H1250.65L1236.61 112.814L1222.78 128.869H1213.36L1231.32 108.381L1214.92 90.501H1224.74L1236.81 103.931L1249.07 90.501H1258.49L1242.1 108.156L1260.56 128.869Z" fill="#292664"/>
<path d="M1303.67 102.378C1303.67 111.006 1298.46 115.84 1283.64 115.84H1272.56V128.886H1263.44V90.5172H1283.35C1299.34 90.5172 1303.67 94.4069 1303.67 102.378ZM1296.45 102.426C1296.45 96.7439 1291.15 94.583 1281.14 94.583H1272.56V110.67H1281.05C1290.76 110.67 1296.45 108.781 1296.45 102.426Z" fill="#292664"/>
<path d="M981.321 128.869L1000.5 89.9248H1007.12L1026.3 128.869H1016.3L1012.87 121.89H992.942L989.517 128.869H981.321ZM995.503 116.672H1010.26L1002.88 101.674L995.503 116.672Z" fill="#292664"/>
<path d="M1069.82 128.869L1089 89.9248H1095.63L1114.8 128.869H1104.8L1101.37 121.89H1081.44L1078.02 128.869H1069.82ZM1084 116.672H1098.76L1091.38 101.674L1084 116.672Z" fill="#292664"/>
<path d="M1331.5 129.574C1326.16 129.574 1321.55 128.789 1317.7 127.221C1313.85 125.652 1310.9 123.379 1308.87 120.386C1306.84 117.393 1305.81 113.839 1305.81 109.693C1305.81 105.548 1306.84 101.978 1308.87 99.0008C1310.9 96.0235 1313.85 93.7345 1317.7 92.1658C1321.56 90.5972 1326.16 89.8129 1331.5 89.8129C1336.85 89.8129 1341.44 90.5972 1345.28 92.1658C1349.13 93.7345 1352.05 96.0075 1354.09 99.0008C1356.12 101.978 1357.14 105.548 1357.14 109.693C1357.14 113.839 1356.12 117.409 1354.09 120.386C1352.05 123.363 1349.13 125.652 1345.28 127.221C1341.44 128.789 1336.85 129.574 1331.5 129.574ZM1332.54 124.34C1337.26 124.34 1340.96 123.203 1343.62 120.914C1346.28 118.625 1347.6 115.424 1347.6 111.326C1347.6 106.204 1346.08 102.218 1343.04 99.3529C1340 96.4877 1335.78 95.0471 1330.35 95.0471C1325.63 95.0471 1321.95 96.1836 1319.3 98.4725C1316.66 100.762 1315.35 103.963 1315.35 108.061C1315.35 111.438 1316.02 114.335 1317.38 116.784C1318.74 119.217 1320.71 121.09 1323.31 122.387C1325.9 123.683 1328.99 124.34 1332.54 124.34Z" fill="#292664"/>
<path d="M838.541 113.615V107.1H861.783V113.615H838.541Z" fill="#292664"/>
<path d="M793.145 129.19V90.245H813.49C818.132 90.245 822.134 90.9653 825.463 92.3899C828.792 93.8305 831.337 95.9114 833.098 98.6326C834.859 101.37 835.739 104.635 835.739 108.429C835.739 115.552 833.931 120.802 830.329 124.147C826.727 127.493 821.109 129.174 813.474 129.174H793.129L793.145 129.19ZM813.49 123.955C817.876 123.955 821.077 122.691 823.142 120.178C825.191 117.665 826.215 113.743 826.215 108.445C826.215 104.379 825.095 101.194 822.838 98.9047C820.597 96.6157 817.476 95.4792 813.474 95.4792H802.669V123.955H813.474H813.49Z" fill="#292664"/>
<path d="M885.873 129.606C879.022 129.606 873.659 128.533 869.834 126.372C865.992 124.227 864.087 121.202 864.087 117.329C864.087 115.472 864.68 113.807 865.896 112.366C867.097 110.91 868.841 109.725 871.13 108.797C869.274 107.869 867.833 106.652 866.793 105.163C865.768 103.675 865.256 101.834 865.256 99.673C865.256 96.5677 867.145 94.1667 870.922 92.438C874.7 90.7092 879.934 89.8448 886.641 89.8448C892.884 89.8448 897.75 90.7092 901.255 92.438C904.761 94.1667 906.521 96.5677 906.521 99.673C906.521 101.418 906.025 102.986 905.017 104.379C904.008 105.772 902.536 106.94 900.599 107.869C902.84 108.797 904.585 110.013 905.833 111.534C907.066 113.039 907.69 114.976 907.69 117.345C907.69 121.218 905.769 124.227 901.943 126.388C898.102 128.533 892.756 129.622 885.905 129.622L885.873 129.606ZM886.465 124.372C890.146 124.372 893.012 123.795 895.061 122.627C897.109 121.458 898.134 119.858 898.134 117.809C898.134 116.608 897.574 115.648 896.485 114.928C895.381 114.207 894.02 113.695 892.387 113.359C890.755 113.023 888.434 112.655 885.408 112.222C884.4 112.062 883.392 111.918 882.383 111.758C881.375 111.598 880.366 111.454 879.358 111.294C877.501 111.758 876.076 112.478 875.084 113.439C874.092 114.415 873.595 115.584 873.595 116.992C873.595 119.313 874.732 121.122 876.989 122.435C879.262 123.731 882.399 124.388 886.433 124.388L886.465 124.372ZM891.395 105.596C893.172 105.163 894.548 104.459 895.525 103.467C896.485 102.474 896.981 101.29 896.981 99.8971C896.981 98.3925 896.005 97.208 894.052 96.3436C892.099 95.4952 889.378 95.0631 885.889 95.0631C882.399 95.0631 879.678 95.4152 877.725 96.1355C875.772 96.8558 874.796 97.8323 874.796 99.0648C874.796 100.425 875.372 101.482 876.541 102.266C877.709 103.034 879.15 103.611 880.879 103.947C882.607 104.299 885.008 104.683 888.114 105.115L891.427 105.58L891.395 105.596Z" fill="#292664"/>
<path d="M792.601 188.815V149.871H802.125V188.815H792.601Z" fill="#292664"/>
<path d="M810.256 188.815V149.871H816.883L842.462 174.521V149.871H850.721V188.815H844.094L818.516 163.989V188.815H810.256Z" fill="#292664"/>
<path d="M858.853 188.815V149.871H879.198C883.84 149.871 887.841 150.591 891.171 152.016C894.5 153.456 897.045 155.537 898.806 158.258C900.567 160.995 901.447 164.261 901.447 168.054C901.447 175.177 899.638 180.428 896.037 183.773C892.435 187.118 886.817 188.799 879.182 188.799H858.837L858.853 188.815ZM879.198 183.597C883.568 183.597 886.785 182.332 888.85 179.819C890.899 177.306 891.923 173.385 891.923 168.086C891.923 164.021 890.803 160.835 888.546 158.546C886.305 156.257 883.183 155.121 879.182 155.121H868.377V183.597H879.182H879.198Z" fill="#292664"/>
<path d="M932.148 189.231C926.802 189.231 922.192 188.447 918.35 186.878C914.493 185.31 911.548 183.037 909.515 180.043C907.482 177.05 906.457 173.497 906.457 169.351C906.457 165.205 907.482 161.636 909.515 158.658C911.548 155.681 914.493 153.392 918.35 151.823C922.208 150.255 926.802 149.47 932.148 149.47C937.495 149.47 942.089 150.255 945.93 151.823C949.772 153.392 952.701 155.665 954.734 158.658C956.767 161.636 957.791 165.205 957.791 169.351C957.791 173.497 956.767 177.066 954.734 180.043C952.701 183.021 949.772 185.31 945.93 186.878C942.089 188.447 937.495 189.231 932.148 189.231ZM933.189 183.997C937.911 183.997 941.608 182.861 944.265 180.572C946.923 178.283 948.251 175.081 948.251 170.984C948.251 165.861 946.73 161.876 943.689 159.011C940.648 156.145 936.422 154.705 930.996 154.705C926.274 154.705 922.592 155.841 919.951 158.13C917.31 160.419 915.997 163.62 915.997 167.718C915.997 171.096 916.67 173.993 918.03 176.442C919.391 178.875 921.36 180.748 923.953 182.044C926.546 183.341 929.635 183.997 933.189 183.997Z" fill="#292664"/>
<path d="M964.514 188.815V149.871H971.141L996.72 174.521V149.871H1004.98V188.815H998.352L972.774 163.989V188.815H964.514Z" fill="#292664"/>
<path d="M1013.11 188.815V149.871H1045.08V155.681L1022.63 155.105V165.973L1043.91 165.685V171.496L1022.63 171.208V183.581L1046.23 183.005V188.815H1013.09H1013.11Z" fill="#292664"/>
<path d="M1074.59 189.231C1070.4 189.231 1066.29 188.639 1062.22 187.422C1058.15 186.222 1054.57 184.557 1051.46 182.428L1055.95 176.682C1059 178.971 1062.3 180.763 1065.82 182.06C1069.34 183.356 1072.72 184.013 1075.94 184.013C1079.15 184.013 1081.52 183.565 1083.28 182.652C1085.05 181.74 1085.93 180.459 1085.93 178.795C1085.93 177.754 1085.38 176.906 1084.29 176.265C1083.2 175.625 1081.84 175.113 1080.2 174.729C1078.55 174.345 1076.19 173.896 1073.14 173.4C1068.69 172.696 1065.02 171.96 1062.16 171.191C1059.29 170.423 1056.83 169.19 1054.78 167.494C1052.73 165.813 1051.7 163.54 1051.7 160.659C1051.7 157.137 1053.53 154.384 1057.16 152.431C1060.8 150.478 1065.85 149.502 1072.34 149.502C1076.4 149.502 1080.45 150.03 1084.45 151.071C1088.47 152.111 1091.98 153.552 1095 155.377L1090.41 161.075C1087.46 159.058 1084.31 157.505 1080.96 156.401C1077.62 155.297 1074.38 154.752 1071.28 154.752C1068.17 154.752 1065.63 155.168 1063.87 156.001C1062.11 156.833 1061.23 158.002 1061.23 159.522C1061.23 160.419 1061.72 161.139 1062.72 161.667C1063.71 162.211 1064.96 162.644 1066.46 162.98C1067.97 163.316 1070.14 163.7 1072.98 164.164C1077.59 164.901 1081.4 165.669 1084.39 166.485C1087.4 167.302 1089.99 168.614 1092.18 170.439C1094.38 172.264 1095.47 174.745 1095.47 177.882C1095.47 181.452 1093.63 184.237 1089.94 186.254C1086.26 188.271 1081.14 189.279 1074.59 189.279V189.231Z" fill="#292664"/>
<path d="M1102.2 188.815V149.871H1111.73V188.815H1102.2Z" fill="#292664"/>
<path d="M1116.27 188.815L1135.45 149.871H1142.08L1161.25 188.815H1151.25L1147.82 181.836H1127.9L1124.47 188.815H1116.27ZM1130.46 176.618H1145.21L1137.84 161.62L1130.46 176.618Z" fill="#292664"/>
<path d="M1178.08 184.109C1184.4 181.42 1189.86 178.747 1194.42 176.09C1198.98 173.432 1202.46 170.887 1204.86 168.47C1207.26 166.053 1208.46 163.86 1208.46 161.908C1208.46 159.763 1207.66 158.082 1206.04 156.881C1204.42 155.665 1202.2 155.073 1199.37 155.073C1196.53 155.073 1193.38 155.809 1190.24 157.266C1187.12 158.722 1184.26 160.755 1181.65 163.364L1177.85 157.33C1180.69 154.993 1183.89 153.168 1187.46 151.871C1191.03 150.575 1194.61 149.918 1198.21 149.918C1204.39 149.918 1209.21 151.007 1212.68 153.168C1216.16 155.329 1217.89 158.354 1217.89 162.228C1217.89 165.557 1215.56 169.127 1210.89 172.904C1206.23 176.682 1199.69 180.315 1191.25 183.805L1218.24 183.117V188.863H1178.09V184.141L1178.08 184.109Z" fill="#292664"/>
<path d="M1243.7 189.231C1239.45 189.231 1235.78 188.447 1232.72 186.894C1229.65 185.342 1227.31 183.085 1225.71 180.139C1224.1 177.194 1223.3 173.657 1223.3 169.559C1223.3 165.461 1224.1 161.924 1225.71 158.978C1227.33 156.017 1229.67 153.776 1232.72 152.223C1235.8 150.671 1239.45 149.886 1243.7 149.886C1247.96 149.886 1251.56 150.671 1254.61 152.223C1257.65 153.776 1259.98 156.033 1261.6 158.978C1263.22 161.94 1264.02 165.461 1264.02 169.559C1264.02 173.657 1263.22 177.194 1261.6 180.139C1259.98 183.101 1257.66 185.342 1254.61 186.894C1251.55 188.447 1247.91 189.231 1243.7 189.231ZM1244.86 184.045C1247.88 184.045 1250.27 182.941 1252 180.732C1253.72 178.523 1254.59 175.465 1254.59 171.56C1254.59 166.389 1253.53 162.34 1251.4 159.427C1249.27 156.513 1246.33 155.057 1242.57 155.057C1239.49 155.057 1237.09 156.161 1235.35 158.37C1233.6 160.579 1232.74 163.636 1232.74 167.542C1232.74 172.712 1233.8 176.762 1235.93 179.675C1238.05 182.588 1241.03 184.045 1244.87 184.045H1244.86Z" fill="#292664"/>
<path d="M1268.5 184.109C1274.82 181.42 1280.28 178.747 1284.84 176.09C1289.4 173.432 1292.88 170.887 1295.28 168.47C1297.68 166.053 1298.88 163.86 1298.88 161.908C1298.88 159.763 1298.08 158.082 1296.46 156.881C1294.85 155.665 1292.62 155.073 1289.79 155.073C1286.95 155.073 1283.8 155.809 1280.66 157.266C1277.54 158.722 1274.68 160.755 1272.07 163.364L1268.27 157.33C1271.11 154.993 1274.31 153.168 1277.88 151.871C1281.45 150.575 1285.03 149.918 1288.64 149.918C1294.81 149.918 1299.63 151.007 1303.11 153.168C1306.58 155.329 1308.31 158.354 1308.31 162.228C1308.31 165.557 1305.99 169.127 1301.31 172.904C1296.65 176.682 1290.11 180.315 1281.67 183.805L1308.66 183.117V188.863H1268.52V184.141L1268.5 184.109Z" fill="#292664"/>
<path d="M1333.17 189.231C1326.38 189.231 1321.39 187.679 1318.18 184.573C1314.98 181.468 1313.38 176.634 1313.38 170.071C1313.38 165.845 1314.25 162.228 1315.98 159.202C1317.7 156.177 1320.19 153.856 1323.42 152.271C1326.65 150.687 1330.54 149.886 1335.07 149.886C1337.33 149.886 1339.71 150.207 1342.23 150.831C1344.74 151.471 1347.12 152.336 1349.38 153.44L1345.59 159.475C1343.86 158.098 1342.05 157.009 1340.18 156.225C1338.3 155.441 1336.51 155.041 1334.83 155.041C1331.18 155.041 1328.3 156.177 1326.17 158.434C1324.04 160.691 1322.89 163.86 1322.7 167.926C1324.04 166.822 1325.76 165.957 1327.82 165.333C1329.89 164.725 1332.21 164.421 1334.78 164.421C1340.5 164.421 1344.95 165.509 1348.16 167.702C1351.37 169.895 1352.97 172.936 1352.97 176.842C1352.97 180.748 1351.22 183.741 1347.73 185.934C1344.24 188.127 1339.39 189.215 1333.18 189.215L1333.17 189.231ZM1334.14 184.045C1337.09 184.045 1339.39 183.469 1341.04 182.284C1342.69 181.116 1343.52 179.483 1343.52 177.37C1343.52 174.921 1342.58 173 1340.71 171.64C1338.83 170.279 1336.22 169.591 1332.88 169.591C1329.81 169.591 1327.42 170.135 1325.69 171.224C1323.96 172.312 1323.1 173.865 1323.1 175.85C1323.1 178.427 1324.06 180.427 1326 181.868C1327.93 183.309 1330.64 184.029 1334.14 184.029V184.045Z" fill="#292664"/>
<rect x="736.344" y="53.2957" width="4.93476" height="179.625" fill="#292664"/>
</svg>
